<svg xmlns="http://www.w3.org/2000/svg" width="99" height="62" viewBox="0 0 99 62" fill="none">
  <g clip-path="url(#clip0_1_146)">
    <path d="M83.8498 14.0952C87.0346 14.0952 89.6163 11.636 89.6163 8.60236C89.6163 5.56874 87.0346 3.1095 83.8498 3.1095C80.665 3.1095 78.0833 5.56874 78.0833 8.60236C78.0833 11.636 80.665 14.0952 83.8498 14.0952Z" fill="white"/>
    <path d="M25.8859 11.1593C29.0707 11.1593 31.6525 8.70008 31.6525 5.66645C31.6525 2.63282 29.0707 0.173584 25.8859 0.173584C22.7012 0.173584 20.1194 2.63282 20.1194 5.66645C20.1194 8.70008 22.7012 11.1593 25.8859 11.1593Z" fill="white"/>
    <path d="M49.0517 12.9587C48.5546 14.0005 48.9523 15.1369 50.0459 15.7999C51.0402 16.3681 52.3327 16.084 53.0286 15.2317L49.0517 12.9587Z" fill="white"/>
    <path d="M56.5084 10.3071L58.1986 6.04538L55.017 4.3407L51.9349 7.84477L45.8701 9.92827L57.3038 16.2735L56.5084 10.3071Z" fill="white"/>
    <path d="M95.5817 18.7358C93.3944 18.4517 91.4059 19.967 91.1076 22.0505L88.5226 39.7602H88.1249V20.8193C88.1249 18.6411 86.2359 16.8417 83.9492 16.8417C81.6624 16.8417 79.7734 18.6411 79.7734 20.8193V35.972L69.5328 36.635C67.3455 36.7297 65.6553 38.4344 65.6553 40.5179L65.4564 56.9965H61.7778V34.4568H65.6553V28.8692H59.1928L68.3397 20.1564C68.638 19.8723 68.638 19.3987 68.3397 19.1146L58.5962 9.83357C58.298 9.54945 57.8009 9.54945 57.5026 9.83357C57.2043 10.1177 57.2043 10.5912 57.5026 10.8753L66.7489 19.6828L57.0055 28.9639H29.4652V34.5515H33.3428V57.0912H30.4595C30.4595 56.9965 30.4595 56.8071 30.3601 56.7123L27.1785 40.0443C26.8802 38.3397 25.3889 37.0138 23.5993 36.8244L19.7218 36.4456L23.8976 21.3875L26.9797 25.6492C27.5762 26.4069 28.471 26.8804 29.4652 26.8804H38.9105C40.5012 26.8804 41.8932 25.6492 41.8932 24.0393C41.8932 22.524 40.6007 21.1981 38.9105 21.1981H31.056L25.2895 12.9588C25.0906 12.6747 24.9912 12.3906 24.6929 12.2012C24.0964 11.4435 23.301 10.97 22.3068 10.97C20.2189 10.5912 18.131 11.8224 17.6339 13.8112L10.5748 38.5291C10.5748 38.6238 10.4754 38.8132 10.4754 38.9079L7.98984 21.8611C7.69157 19.7776 5.70311 18.2623 3.5158 18.5464C1.32849 18.8305 -0.262285 20.7246 0.0359846 22.8081L3.1181 43.7378C3.21753 44.5902 3.61522 45.2531 4.21176 45.8213C4.90772 46.579 6.00138 47.1472 7.19445 47.1472H12.8616V56.807H5.10657V61.8264H93.4938V56.807H85.8382V47.3366H91.0082C91.3065 47.3366 91.6047 47.3366 91.903 47.2419C93.8915 47.2419 95.5817 45.8213 95.8799 43.9272L98.9621 22.9975C99.2603 20.914 97.769 18.9252 95.5817 18.7358ZM16.8385 47.3366H20.2189L22.0085 56.9965H16.7391V47.3366H16.8385ZM73.7086 56.9965L73.808 47.3366C73.9074 47.3366 74.0068 47.3366 74.2057 47.3366H81.7618V56.9965H73.7086Z" fill="white"/>
  </g>
  <defs>
    <clipPath id="clip0_1_146">
      <rect width="99" height="61.6527" fill="white" transform="translate(0 0.173584)"/>
    </clipPath>
  </defs>
</svg>