<svg width="8548" height="1266" viewBox="0 0 8548 1266" fill="none" xmlns="http://www.w3.org/2000/svg">
<path d="M7822.4 505.768C7860.73 505.768 7891.79 480.034 7891.79 448.289C7891.79 416.545 7860.73 390.811 7822.4 390.811C7784.08 390.811 7753.02 416.545 7753.02 448.289C7753.02 480.034 7784.08 505.768 7822.4 505.768Z" fill="white"/>
<path d="M7124.93 475.046C7163.25 475.046 7194.32 449.313 7194.32 417.568C7194.32 385.824 7163.25 360.09 7124.93 360.09C7086.61 360.09 7055.54 385.824 7055.54 417.568C7055.54 449.313 7086.61 475.046 7124.93 475.046Z" fill="white"/>
<path d="M7403.68 493.875C7397.7 504.776 7402.48 516.668 7415.64 523.605C7427.61 529.551 7443.16 526.578 7451.53 517.659L7403.68 493.875Z" fill="white"/>
<path d="M7493.41 466.127L7513.74 421.532L7475.46 403.694L7438.37 440.361L7365.4 462.163L7502.98 528.56L7493.41 466.127Z" fill="white"/>
<path d="M7963.57 554.327C7937.25 551.354 7913.33 567.21 7909.74 589.012L7878.63 774.33H7873.85V576.129C7873.85 553.336 7851.12 534.507 7823.6 534.507C7796.08 534.507 7773.35 553.336 7773.35 576.129V734.69L7650.13 741.627C7623.81 742.618 7603.47 760.456 7603.47 782.258L7601.08 954.693H7556.81V718.833H7603.47V660.364H7525.71L7635.77 569.192C7639.36 566.219 7639.36 561.264 7635.77 558.291L7518.53 461.172C7514.94 458.199 7508.96 458.199 7505.37 461.172C7501.78 464.145 7501.78 469.1 7505.37 472.073L7616.63 564.237L7499.39 661.355H7168V719.824H7214.66V955.684H7179.96C7179.96 954.693 7179.96 952.711 7178.77 951.72L7140.48 777.303C7136.89 759.465 7118.95 745.591 7097.41 743.609L7050.76 739.645L7101 582.075L7138.09 626.67C7145.27 634.598 7156.03 639.553 7168 639.553H7281.65C7300.79 639.553 7317.54 626.67 7317.54 609.823C7317.54 593.967 7301.99 580.093 7281.65 580.093H7187.14L7117.75 493.875C7115.36 490.902 7114.16 487.929 7110.57 485.947C7103.4 478.019 7093.82 473.064 7081.86 473.064C7056.74 469.1 7031.61 481.983 7025.63 502.794L6940.69 761.447C6940.69 762.438 6939.49 764.42 6939.49 765.411L6909.59 587.03C6906 565.228 6882.07 549.372 6855.75 552.345C6829.43 555.318 6810.29 575.138 6813.88 596.94L6850.96 815.952C6852.16 824.871 6856.95 831.808 6864.12 837.754C6872.5 845.682 6885.66 851.628 6900.01 851.628H6968.21V952.711H6874.89V1005.23H7938.45V952.711H7846.33V853.61H7908.54C7912.13 853.61 7915.72 853.61 7919.31 852.619C7943.24 852.619 7963.57 837.754 7967.16 817.934L8004.25 598.922C8007.84 577.12 7989.89 556.309 7963.57 554.327ZM7016.06 853.61H7056.74L7078.27 954.693H7014.86V853.61H7016.06ZM7700.38 954.693L7701.57 853.61C7702.77 853.61 7703.97 853.61 7706.36 853.61H7797.28V954.693H7700.38Z" fill="white"/>
<g clip-path="url(#clip0_121_197)">
<path d="M3261.68 1012.19L3256.26 1007.54L3260.32 964.068C3275.67 962.692 3285.96 961.584 3291.2 960.756C3296.35 959.856 3299.73 958.448 3301.36 956.513C3302.89 954.65 3303.66 951.307 3303.66 946.474L3302.3 937.159L3298.24 916.977L3246.1 915.942C3239.33 915.942 3221.28 916.801 3191.94 918.53L3185.17 941.299C3183.81 946.815 3183.13 950.614 3183.13 952.684C3183.13 957.165 3184.39 960.001 3186.93 961.17C3189.36 962.412 3195.09 963.033 3204.12 963.033H3221.73L3227.15 968.208L3221.73 1011.16C3214.96 1010.82 3201.55 1010.47 3181.51 1010.12C3161.37 1009.78 3140.03 1009.61 3117.45 1009.61L3027.4 1010.12L3032.14 965.103C3048.39 961.998 3059.9 952.508 3066.67 936.642L3174.33 676.865L3352.41 668.585L3362.57 674.795C3369.34 696.187 3383.11 738.166 3403.87 800.75C3424.63 863.397 3439.08 906.452 3447.2 929.914C3451.27 941.64 3456.37 950.169 3462.51 955.478C3468.56 960.86 3476.77 963.892 3487.15 964.586L3491.89 969.761L3486.48 1010.64C3480.15 1010.64 3467.75 1010.47 3449.24 1010.12C3430.72 1009.78 3411.32 1009.61 3391 1009.61C3364.37 1009.61 3337.96 1009.95 3311.78 1010.64C3285.61 1011.34 3268.9 1011.85 3261.68 1012.19ZM3213.6 853.327H3248.14C3255.35 853.327 3267.09 852.985 3283.35 852.292L3260.32 761.732H3245.43L3213.6 853.327ZM3810.13 1015.3C3778.54 975.277 3749.33 939.229 3722.51 907.145C3695.61 875.061 3678.54 854.703 3671.33 846.082H3661.17L3663.2 938.194C3663.65 948.202 3665.68 955.095 3669.29 958.893C3672.91 962.692 3679.68 964.586 3689.61 964.586C3694.12 964.586 3698.64 964.306 3703.15 963.758C3707.66 963.271 3710.83 962.857 3712.63 962.516L3718.72 967.173L3711.27 1011.16C3703.15 1010.82 3688.48 1010.4 3667.26 1009.92C3646.04 1009.37 3625.96 1009.09 3607 1009.09C3587.6 1009.09 3566.96 1009.71 3545.11 1010.95C3523.18 1012.12 3509.05 1012.89 3502.73 1013.23L3509.5 966.656C3522.59 965.279 3532.21 962.071 3538.34 957.03C3544.4 952.063 3547.65 944.404 3548.09 934.054L3556.22 753.452C3556.22 745.172 3555 738.963 3552.56 734.823C3550.03 730.683 3545.29 727.65 3538.34 725.715C3531.3 723.852 3520.33 722.227 3505.44 720.851L3497.31 713.606L3501.37 671.69C3507.24 672.031 3520.24 672.549 3540.37 673.242C3560.42 673.936 3580.82 674.277 3601.58 674.277C3616.93 674.277 3633.85 673.998 3652.37 673.449C3670.88 672.963 3682.84 672.549 3688.25 672.207C3713.54 707.055 3741.51 743.341 3772.21 781.086C3802.91 818.893 3818.26 837.461 3818.26 836.767H3828.41L3825.71 742.068C3825.26 733.446 3823.44 727.578 3820.29 724.473C3817.13 721.368 3811.49 719.816 3803.36 719.816H3782.37L3778.99 714.123L3782.37 672.207C3790.5 672.549 3805.62 672.963 3827.74 673.449C3849.85 673.998 3872.2 674.277 3894.77 674.277C3915.08 674.277 3934.27 674.101 3952.32 673.76C3970.38 673.418 3982.56 673.066 3988.89 672.725L3985.5 719.298C3971.05 720.675 3961.03 723.78 3955.44 728.613C3949.75 733.446 3946.68 741.208 3946.23 751.9L3937.43 1009.09L3810.13 1015.3ZM4206.24 1012.19L4200.82 1007.54L4204.88 964.068C4220.23 962.692 4230.48 961.584 4235.62 960.756C4240.86 959.856 4244.25 958.448 4245.78 956.513C4247.41 954.65 4248.22 951.307 4248.22 946.474L4246.86 937.159L4242.8 916.977L4190.66 915.942C4183.89 915.942 4165.84 916.801 4136.5 918.53L4129.73 941.299C4128.37 946.815 4127.69 950.614 4127.69 952.684C4127.69 957.165 4128.95 960.001 4131.49 961.17C4133.92 962.412 4139.65 963.033 4148.68 963.033H4166.29L4171.71 968.208L4166.29 1011.16C4159.52 1010.82 4146.11 1010.47 4126.07 1010.12C4105.93 1009.78 4084.59 1009.61 4062.01 1009.61L3971.96 1010.12L3976.7 965.103C3992.95 961.998 4004.46 952.508 4011.23 936.642L4118.89 676.865L4296.97 668.585L4307.13 674.795C4313.9 696.187 4327.67 738.166 4348.43 800.75C4369.19 863.397 4383.64 906.452 4391.76 929.914C4395.83 941.64 4400.93 950.169 4407.07 955.478C4413.12 960.86 4421.33 963.892 4431.71 964.586L4436.45 969.761L4431.04 1010.64C4424.71 1010.64 4412.31 1010.47 4393.8 1010.12C4375.28 1009.78 4355.88 1009.61 4335.56 1009.61C4308.93 1009.61 4282.52 1009.95 4256.34 1010.64C4230.17 1011.34 4213.46 1011.85 4206.24 1012.19ZM4158.16 853.327H4192.7C4199.91 853.327 4211.65 852.985 4227.91 852.292L4204.88 761.732H4189.99L4158.16 853.327ZM4441.87 1014.26L4447.96 966.656C4465.12 964.586 4476.77 960.342 4482.9 953.926C4488.96 947.581 4491.98 936.642 4491.98 921.117V746.207C4491.98 735.516 4490.39 728.437 4487.24 724.991C4484.08 721.544 4477.76 719.816 4468.28 719.816L4450.67 720.333L4444.58 713.088L4450 674.277H4559.01C4582.94 674.277 4609.34 673.936 4638.23 673.242C4667.12 672.549 4687.43 672.031 4699.17 671.69L4691.72 722.403C4668.25 724.132 4652.58 726.781 4644.73 730.372C4636.78 734.026 4632.58 740.339 4632.14 749.312C4627.63 801.061 4625.37 860.395 4625.37 927.327C4625.37 935.265 4627.3 940.957 4631.19 944.404C4634.98 947.85 4641.39 949.579 4650.42 949.579C4667.12 949.579 4679.76 947.333 4688.34 942.851C4696.91 938.37 4703.14 930.256 4707.02 918.53C4710.82 906.803 4713.62 889.033 4715.42 865.229L4802.09 858.501L4810.21 866.264C4808.86 873.85 4806.52 891.279 4803.17 918.53C4799.75 945.78 4796.67 974.418 4793.96 1004.43L4783.81 1012.71C4772.07 1012.37 4746.03 1011.68 4705.67 1010.64C4665.22 1009.61 4624.92 1009.09 4584.74 1009.09C4555.85 1009.09 4526.87 1009.78 4497.8 1011.16C4468.64 1012.54 4450 1013.57 4441.87 1014.26ZM4835.27 1013.75L4840.68 966.138C4860.55 965.103 4875.35 963.313 4885.1 960.756C4894.76 958.138 4901.39 954.236 4905.01 949.061C4908.62 943.886 4910.43 935.948 4910.43 925.257V916.977C4910.43 909.391 4909.07 902.208 4906.36 895.45C4903.65 888.754 4898.68 880.412 4891.47 870.404L4819.02 767.424C4805.47 748.453 4783.13 733.964 4751.98 723.956L4749.28 720.851L4756.05 673.76L4857.61 674.795C4870.71 674.795 4891.83 674.277 4920.99 673.242C4950.06 672.207 4969.56 671.514 4979.49 671.172L4984.23 676.865L4978.14 719.298C4959.62 719.298 4950.38 723.614 4950.38 732.235C4950.38 735.682 4954.21 744.727 4961.89 759.351C4969.56 774.048 4974.52 783.642 4976.78 788.124L4988.29 808.823H4997.77L5025.53 749.83C5031.4 739.822 5034.34 732.235 5034.34 727.06C5034.34 723.956 5032.44 721.782 5028.65 720.54C5024.76 719.371 5018.09 718.781 5008.61 718.781L5006.57 715.676L5011.99 674.795H5118.97C5133.42 674.795 5148.67 674.515 5164.75 673.967C5180.73 673.48 5190.98 673.066 5195.49 672.725L5198.2 676.865L5192.78 721.886C5178.33 728.095 5164.57 736.893 5151.48 748.277C5138.38 759.662 5127.1 772.599 5117.62 787.089L5056 881.271C5051.49 889.55 5048.69 896.868 5047.61 903.212C5046.43 909.629 5045.85 918.354 5045.85 929.397C5045.85 941.475 5048.33 949.92 5053.29 954.754C5058.26 959.587 5067.07 961.998 5079.7 961.998C5088.27 961.998 5095.72 961.822 5102.05 961.481C5108.37 961.139 5112.43 960.787 5114.23 960.446L5117.62 963.551L5111.53 1012.19C5100.69 1011.85 5078.71 1011.26 5045.58 1010.43C5012.36 1009.53 4987.62 1009.09 4971.37 1009.09C4953.31 1009.09 4928.61 1009.78 4897.29 1011.16C4865.87 1012.54 4845.19 1013.41 4835.27 1013.75ZM5224.6 1012.71L5200.23 982.698L5420.96 728.613L5368.83 733.788C5350.31 736.551 5337 739.656 5328.88 743.102C5320.75 746.549 5315.24 751.9 5312.35 759.145C5309.38 766.389 5307.44 777.598 5306.53 792.781L5221.22 797.438C5222.12 789.159 5223.83 771.388 5226.36 744.137C5228.8 716.887 5230.47 693.248 5231.37 673.242L5238.82 667.55L5361.38 673.242H5585.5L5602.43 701.186C5533.36 771.564 5460.91 852.292 5385.08 943.369L5376.95 952.684L5448.05 944.921C5469.71 941.816 5485.52 934.851 5495.44 924.015C5505.37 913.117 5511.92 895.584 5515.08 871.439L5600.39 866.781C5599.49 870.921 5598.05 879.718 5596.06 893.173C5593.99 906.627 5591.73 923.88 5589.29 944.921C5586.76 965.962 5585.27 984.074 5584.82 999.257L5570.6 1010.64L5280.12 1007.54L5224.6 1012.71ZM5990.41 890.068L5998.53 897.83C5990.85 928.186 5984.54 963.727 5979.57 1004.43L5969.42 1012.71C5893.58 1010.3 5821.13 1009.09 5752.07 1009.09C5707.82 1009.09 5660.21 1010.82 5609.2 1014.26L5615.29 966.656C5632.45 964.586 5644.1 960.342 5650.23 953.926C5656.28 947.581 5659.3 936.642 5659.3 921.117L5659.98 747.76C5659.98 736.375 5658.86 728.851 5656.59 725.198C5654.33 721.606 5649.38 719.816 5641.7 719.816C5635.37 719.816 5629.51 720.157 5624.09 720.851L5615.97 713.606L5622.06 672.725C5631.09 672.725 5638.08 672.901 5643.05 673.242C5698.13 673.936 5743.71 674.277 5779.83 674.277C5822.25 674.277 5863.02 673.687 5902.11 672.518C5941.11 671.276 5970.09 669.796 5989.05 668.067L5997.86 676.347C5994.24 690.495 5990.99 707.396 5988.1 727.06C5985.13 746.725 5983.19 764.143 5982.28 779.326L5888.84 783.984L5890.2 764.837C5890.2 756.899 5888.53 750.937 5885.18 746.932C5881.76 742.999 5875.43 740.236 5866.23 738.652C5856.92 737.131 5842.8 736.375 5823.84 736.375C5814.36 736.375 5808.17 737.234 5805.29 738.963C5802.31 740.691 5800.82 744.479 5800.82 750.347L5796.76 808.823L5852.28 809.34C5870.33 809.34 5895.17 808.305 5926.76 806.236L5934.88 813.48L5925.4 872.991C5882.07 871.956 5854.99 871.439 5844.15 871.439C5834.67 871.439 5817.75 872.474 5793.37 874.543L5792.69 918.53C5792.69 927.844 5793.51 934.644 5795.13 938.918C5796.66 943.265 5799.6 946.132 5803.93 947.509C5808.17 948.885 5815.27 949.579 5825.19 949.579C5845.51 949.579 5860.63 948.202 5870.56 945.439C5880.49 942.675 5887.8 937.573 5892.5 930.121C5897.28 922.742 5901.03 910.943 5903.74 894.725L5990.41 890.068ZM6358.75 1017.37C6339.79 1017.37 6324.35 1013.75 6312.44 1006.5C6300.43 999.257 6290.13 987.179 6281.56 970.278L6239.58 891.103H6201.66V926.292C6201.66 937.677 6202.71 945.677 6204.78 950.303C6206.77 954.992 6210.91 958.2 6217.24 959.928C6223.56 961.657 6234.39 962.857 6249.74 963.551L6253.12 967.691L6246.35 1011.16C6237.32 1010.82 6221.43 1010.4 6198.68 1009.92C6175.84 1009.37 6154.71 1009.09 6135.31 1009.09C6114.55 1009.09 6091.74 1009.71 6066.92 1010.95C6042.1 1012.12 6025.85 1013.05 6018.17 1013.75L6024.26 966.138C6040.96 964.068 6052.47 959.825 6058.79 953.408C6065.12 947.064 6068.27 936.642 6068.27 922.152V742.585C6068.27 733.964 6067.05 727.992 6064.62 724.68C6062.08 721.441 6057.44 719.816 6050.67 719.816C6045.25 719.816 6040.28 719.992 6035.77 720.333C6031.26 720.675 6028.32 720.851 6026.97 720.851L6020.2 714.641L6027.65 673.76L6123.8 674.277C6137.34 674.277 6159.1 673.832 6189.07 672.932C6219.13 672.104 6239.13 671.514 6249.06 671.172C6373.65 671.172 6435.94 703.598 6435.94 768.459C6435.94 809.165 6408.86 841.766 6354.69 866.264L6396.67 920.082C6408.41 934.913 6419.83 946.194 6430.93 953.926C6441.94 961.719 6452.42 965.621 6462.35 965.621L6469.8 973.9L6463.7 1011.68L6358.75 1017.37ZM6255.15 831.075C6270.5 826.241 6281.25 819.928 6287.38 812.135C6293.44 804.404 6296.46 793.298 6296.46 778.809C6296.46 763.978 6290.27 753.111 6277.91 746.207C6265.45 739.304 6246.12 735.858 6219.95 735.858C6215.44 735.858 6212.5 736.551 6211.14 737.928C6209.79 739.304 6208.88 742.409 6208.43 747.242C6206.17 770.705 6204.6 796.921 6203.69 825.9L6255.15 831.075Z" fill="white"/>
</g>
<path d="M336.429 998.175L341.854 951.283C360.841 949.927 374.986 947.95 384.304 945.371C393.526 942.853 399.941 938.714 403.562 932.934C407.183 927.154 408.987 918.836 408.987 907.959V725.489C396.333 725.489 386.975 727.191 380.913 730.586C374.769 733.98 370.24 740.443 367.351 749.954C364.367 759.465 361.75 774.419 359.485 794.807L275.4 798.885C278.113 759.129 279.916 714.612 280.825 665.345L289.64 658.209L370.335 663.816H583.259L665.31 658.209L674.125 665.345C675.034 722.767 676.159 765.928 677.516 794.807L593.431 798.885C591.166 775.439 588.684 758.853 585.972 749.139C583.259 739.485 579.191 733.134 573.766 730.076C568.341 727.018 559.295 725.489 546.642 725.489C544.377 787.335 543.251 849.518 543.251 912.037C543.251 924.952 545.869 934.025 551.117 939.254C556.271 944.555 565.398 947.205 578.512 947.205C586.65 947.205 598.177 946.696 613.096 945.676L616.486 948.735L610.383 996.646C550.71 994.607 504.83 993.588 472.728 993.588C442.892 993.588 397.459 995.117 336.429 998.175ZM880.268 996.646L874.844 992.058L878.912 949.244C894.278 947.888 904.585 946.798 909.834 945.982C914.987 945.095 918.378 943.709 920.005 941.803C921.538 939.968 922.311 936.675 922.311 931.915L920.955 922.74L916.886 902.862L864.672 901.843C857.891 901.843 839.813 902.689 810.424 904.391L803.643 926.818C802.287 932.251 801.608 935.992 801.608 938.031C801.608 942.445 802.87 945.238 805.406 946.39C807.847 947.613 813.584 948.225 822.63 948.225H840.26L845.685 953.322L840.26 995.626C833.479 995.29 820.012 994.943 799.845 994.607C779.774 994.271 758.44 994.097 735.832 994.097L645.645 994.607L650.391 950.264C666.666 947.205 678.194 937.858 684.975 922.231L792.793 666.365L971.134 658.209L981.306 664.326C988.087 685.396 1001.88 726.743 1022.67 788.385C1043.46 850.089 1057.93 892.495 1066.07 915.604C1070.14 927.154 1075.2 935.554 1081.26 940.783C1087.4 946.084 1095.67 949.071 1106.08 949.754L1110.82 954.851L1105.4 995.117C1099.07 995.117 1086.64 994.943 1068.1 994.607C1049.56 994.271 1030.13 994.097 1009.79 994.097C983.11 994.097 956.664 994.434 930.448 995.117C904.233 995.8 887.497 996.309 880.268 996.646ZM832.123 840.17H866.706C873.935 840.17 885.693 839.834 901.968 839.151L878.912 749.954H863.994L832.123 840.17ZM1116.25 998.684L1122.35 951.793C1139.53 949.754 1151.2 945.574 1157.34 939.254C1163.4 933.005 1166.43 922.231 1166.43 906.94V734.663C1166.43 724.133 1164.84 717.161 1161.68 713.766C1158.52 710.371 1152.19 708.669 1142.69 708.669L1125.06 709.179L1118.96 702.043L1124.39 663.816H1233.56C1257.52 663.816 1283.97 663.48 1312.9 662.797C1341.83 662.114 1362.17 661.604 1373.93 661.268L1366.47 711.217C1342.97 712.92 1327.27 715.53 1319.41 719.067C1311.45 722.665 1307.24 728.883 1306.8 737.722C1302.28 788.691 1300.01 847.132 1300.01 913.056C1300.01 920.875 1301.95 926.481 1305.85 929.876C1309.64 933.27 1316.06 934.973 1325.1 934.973C1341.83 934.973 1354.49 932.761 1363.08 928.347C1371.66 923.933 1377.9 915.941 1381.79 904.391C1385.59 892.842 1388.4 875.339 1390.2 851.893L1477 845.267L1485.14 852.912C1483.78 860.384 1481.43 877.551 1478.08 904.391C1474.65 931.232 1471.57 959.438 1468.86 989L1458.69 997.155C1446.93 996.819 1420.85 996.136 1380.44 995.117C1339.93 994.097 1299.57 993.588 1259.33 993.588C1230.4 993.588 1201.38 994.271 1172.26 995.626C1143.06 996.982 1124.39 998.002 1116.25 998.684ZM1875.72 876.358L1883.86 884.004C1876.17 913.902 1869.85 948.908 1864.87 989L1854.7 997.155C1778.76 994.78 1706.2 993.588 1637.03 993.588C1592.72 993.588 1545.04 995.29 1493.95 998.684L1500.06 951.793C1517.24 949.754 1528.9 945.574 1535.05 939.254C1541.11 933.005 1544.13 922.231 1544.13 906.94L1544.81 736.192C1544.81 724.979 1543.68 717.568 1541.42 713.97C1539.15 710.433 1534.19 708.669 1526.5 708.669C1520.17 708.669 1514.3 709.005 1508.87 709.688L1500.73 702.553L1506.84 662.287C1515.88 662.287 1522.88 662.46 1527.86 662.797C1583.01 663.48 1628.66 663.816 1664.83 663.816C1707.32 663.816 1748.15 663.235 1787.3 662.083C1826.36 660.86 1855.38 659.402 1874.37 657.7L1883.18 665.855C1879.56 679.79 1876.31 696.436 1873.42 715.805C1870.44 735.173 1868.5 752.329 1867.59 767.284L1774.01 771.871L1775.37 753.012C1775.37 745.194 1773.7 739.322 1770.35 735.377C1766.92 731.503 1760.58 728.782 1751.36 727.222C1742.04 725.723 1727.9 724.979 1708.91 724.979C1699.42 724.979 1693.22 725.825 1690.33 727.528C1687.35 729.23 1685.86 732.961 1685.86 738.741L1681.79 796.336L1737.39 796.846C1755.47 796.846 1780.34 795.827 1811.98 793.788L1820.12 800.924L1810.63 859.538C1767.23 858.519 1740.1 858.009 1729.25 858.009C1719.76 858.009 1702.81 859.029 1678.4 861.067L1677.72 904.391C1677.72 913.566 1678.53 920.263 1680.16 924.473C1681.69 928.755 1684.63 931.578 1688.97 932.934C1693.22 934.29 1700.33 934.973 1710.27 934.973C1730.61 934.973 1745.76 933.617 1755.7 930.895C1765.64 928.174 1773.02 923.148 1777.81 915.808C1782.51 908.54 1786.21 896.919 1788.93 880.945L1875.72 876.358ZM2216.13 999.704C2184.49 960.284 2155.24 924.779 2128.39 893.178C2101.44 861.577 2084.35 841.526 2077.12 833.034H2066.95L2068.98 923.76C2069.43 933.617 2071.47 940.406 2075.09 944.147C2078.71 947.888 2085.49 949.754 2095.43 949.754C2099.95 949.754 2104.48 949.479 2108.99 948.938C2113.51 948.459 2116.68 948.052 2118.49 947.715L2124.59 952.302L2117.13 995.626C2108.99 995.29 2094.3 994.882 2073.05 994.403C2051.8 993.863 2031.69 993.588 2012.7 993.588C1993.27 993.588 1972.6 994.199 1950.72 995.422C1928.75 996.574 1914.61 997.329 1908.27 997.665L1915.05 951.793C1928.17 950.437 1937.8 947.277 1943.94 942.312C1950 937.419 1953.26 929.876 1953.71 919.682L1961.84 741.799C1961.84 733.644 1960.62 727.528 1958.18 723.45C1955.65 719.373 1950.9 716.386 1943.94 714.48C1936.89 712.645 1925.9 711.044 1910.99 709.688L1902.85 702.553L1906.92 661.268C1912.79 661.604 1925.81 662.114 1945.98 662.797C1966.05 663.48 1986.49 663.816 2007.28 663.816C2022.64 663.816 2039.59 663.541 2058.13 663.001C2076.67 662.521 2088.65 662.114 2094.07 661.777C2119.39 696.1 2147.41 731.84 2178.16 769.017C2208.9 806.255 2224.27 824.543 2224.27 823.86H2234.44L2231.73 730.586C2231.28 722.094 2229.46 716.314 2226.3 713.256C2223.14 710.198 2217.49 708.669 2209.35 708.669H2188.33L2184.94 703.062L2188.33 661.777C2196.47 662.114 2211.62 662.521 2233.76 663.001C2255.91 663.541 2278.29 663.816 2300.9 663.816C2321.24 663.816 2340.46 663.643 2358.53 663.306C2376.61 662.97 2388.82 662.623 2395.15 662.287L2391.76 708.159C2377.29 709.515 2367.25 712.573 2361.65 717.334C2355.96 722.094 2352.88 729.74 2352.43 740.27L2343.62 993.588L2216.13 999.704ZM2456.18 998.175L2461.61 951.283C2480.59 949.927 2494.74 947.95 2504.06 945.371C2513.28 942.853 2519.69 938.714 2523.31 932.934C2526.93 927.154 2528.74 918.836 2528.74 907.959V725.489C2516.08 725.489 2506.73 727.191 2500.66 730.586C2494.52 733.98 2489.99 740.443 2487.1 749.954C2484.12 759.465 2481.5 774.419 2479.24 794.807L2395.15 798.885C2397.86 759.129 2399.67 714.612 2400.58 665.345L2409.39 658.209L2490.09 663.816H2703.01L2785.06 658.209L2793.88 665.345C2794.79 722.767 2795.91 765.928 2797.27 794.807L2713.18 798.885C2710.92 775.439 2708.44 758.853 2705.72 749.139C2703.01 739.485 2698.94 733.134 2693.52 730.076C2688.09 727.018 2679.05 725.489 2666.39 725.489C2664.13 787.335 2663 849.518 2663 912.037C2663 924.952 2665.62 934.025 2670.87 939.254C2676.02 944.555 2685.15 947.205 2698.26 947.205C2706.4 947.205 2717.93 946.696 2732.85 945.676L2736.24 948.735L2730.13 996.646C2670.46 994.607 2624.58 993.588 2592.48 993.588C2562.64 993.588 2517.21 995.117 2456.18 998.175Z" fill="white"/>
<defs>
<clipPath id="clip0_121_197">
<rect width="3442.4" height="761.737" fill="white" transform="translate(3027.4 237.968)"/>
</clipPath>
</defs>
</svg>
